<svg height="1180pt" preserveAspectRatio="xMidYMid meet" viewBox="0 0 1180 1180" width="1180pt" xmlns="http://www.w3.org/2000/svg"><g transform="matrix(.1 0 0 -.1 0 1180)"><path d="m0 5900v-5840h5900 5900v5840 5840h-5900-5900zm10660 50v-4800h-4800-4800v4800 4800h4800 4800z"/><path d="m4125 8339c-349-69-597-323-656-673-40-234 51-505 226-681 154-154 340-230 565-230s411 76 565 230 230 340 230 565c0 174-36 297-125 433-112 173-271 287-480 344-68 18-258 25-325 12z"/><path d="m7325 8339c-349-69-597-323-656-673-40-234 51-505 226-681 154-154 340-230 565-230s411 76 565 230 230 340 230 565c0 174-36 297-125 433-112 173-271 287-480 344-68 18-258 25-325 12z"/><path d="m3460 5092c0-178 46-450 111-656 239-761 814-1336 1575-1575 468-147 960-147 1428 0 761 239 1336 814 1575 1575 65 206 111 478 111 656v58h-2400-2400z"/></g></svg>